<?xml version="1.0" ?>

<!-- Uploaded to: SVG Repo, www.svgrepo.com, Generator: SVG Repo Mixer Tools -->
<svg fill="#000000" width="800px" height="800px" viewBox="0 0 512 512" version="1.1" xml:space="preserve" xmlns="http://www.w3.org/2000/svg" xmlns:xlink="http://www.w3.org/1999/xlink">

<g id="Brick_Wal">

<g id="XMLID_577_">

<polygon id="XMLID_578_" points="132.264,149 154,149 154,105 2,105 2,149 13.908,149   "/>

<rect height="45" id="XMLID_579_" width="99" x="142" y="169"/>

<rect height="45" id="XMLID_580_" width="98" x="24" y="169"/>

<rect height="44" id="XMLID_581_" width="152" x="2" y="234"/>

<polygon id="XMLID_582_" points="338,149 338,105 174,105 174,149 250.62,149   "/>

<polygon id="XMLID_583_" points="174,234 174,278 250.62,278 338,278 338,234 250.62,234   "/>

<rect height="45" id="XMLID_584_" width="98" x="379" y="169"/>

<rect height="45" id="XMLID_585_" width="98" x="261" y="169"/>

<rect height="44" id="XMLID_586_" width="152" x="358" y="234"/>

<rect height="45" id="XMLID_587_" width="98" x="261" y="298"/>

<polygon id="XMLID_588_" points="368.976,363 358,363 358,407 510,407 510,363 487.332,363   "/>

<rect height="45" id="XMLID_589_" width="98" x="379" y="298"/>

<polygon id="XMLID_590_" points="13.908,363 2,363 2,407 154,407 154,363 132.264,363   "/>

<rect height="45" id="XMLID_591_" width="98" x="24" y="298"/>

<rect height="45" id="XMLID_592_" width="99" x="142" y="298"/>

<rect height="44" id="XMLID_593_" width="164" x="174" y="363"/>

</g>

</g>

<g id="Layer_1"/>

</svg>